<svg width="24" height="24" fill="none" xmlns="http://www.w3.org/2000/svg"><g clip-path="url(#clip0_1624_73977)"><path d="M12 24c6.627 0 12-5.373 12-12S18.627 0 12 0 0 5.373 0 12s5.373 12 12 12z" fill="#F0F0F0"/><path d="M12-.001A12 12 0 001.19 6.782h21.62A12 12 0 0012-.001zm0 24a12 12 0 0010.81-6.783H1.191A12 12 0 0012.001 24z" fill="#338AF3"/><path d="M15.586 12l-1.465.69.78 1.419-1.591-.305-.202 1.608L12 14.229l-1.109 1.183-.201-1.608-1.592.305.78-1.42L8.414 12l1.466-.69-.78-1.419 1.59.305.202-1.608L12 9.771l1.108-1.183.202 1.608 1.59-.306-.78 1.42 1.465.689z" fill="#FFDA44"/></g><defs><clipPath id="clip0_1624_73977"><path fill="#fff" d="M0 0h24v24H0z"/></clipPath></defs></svg>