<svg width="24" height="24" fill="none" xmlns="http://www.w3.org/2000/svg"><g clip-path="url(#clip0_1624_73940)"><path d="M24 12c0 6.627-5.373 12-12 12S0 18.627 0 12C0 12.003 12 .001 12 0c6.627 0 12 5.373 12 12z" fill="#0052B4"/><path d="M11.968 12H12v-.032l-.032.032z" fill="#F0F0F0"/><path d="M12 6.262V0h-.002C5.372.002 0 5.374 0 12.001h6.26V8.475l3.526 3.526h2.182l.032-.032V9.787L8.474 6.262H12z" fill="#F0F0F0"/><path d="M6.071 1.566A12.057 12.057 0 001.565 6.07V12h3.13V4.696H12v-3.13H6.071z" fill="#D80027"/><path d="M12 10.525L7.737 6.26H6.26L12 12v-1.476z" fill="#D80027"/><path d="M7.238 14.086l.658 1.377 1.488-.343-.666 1.373 1.196.949-1.49.335.005 1.527-1.191-.955-1.191.955.004-1.527-1.489-.335 1.196-.949-.666-1.373 1.487.344.659-1.378zm10.729 2.609l.33.689.743-.172-.333.687.598.474-.744.168.002.763-.596-.477-.595.477.002-.763-.745-.168.598-.474-.333-.687.744.172.33-.689zm-3.063-7.304l.33.689.743-.172-.333.687.598.474-.745.168.002.763-.595-.477-.596.477.002-.763-.744-.168.598-.474-.333-.687.744.172.329-.689zm3.063-4.173l.33.688.743-.172-.333.687.598.474-.744.168.002.763-.596-.477-.595.477.002-.763-.745-.168.598-.474-.333-.687.744.172.33-.688zm2.676 3.13l.329.688.743-.172-.332.687.597.474-.744.168.002.763-.595-.477-.596.477.002-.763-.744-.168.598-.474-.333-.687.743.172.33-.688zM18.73 12l.258.797h.839l-.678.493.259.797-.678-.492-.679.492.26-.797-.679-.493h.838l.26-.797z" fill="#F0F0F0"/></g><defs><clipPath id="clip0_1624_73940"><path fill="#fff" d="M0 0h24v24H0z"/></clipPath></defs></svg>