<svg width="24" height="24" fill="none" xmlns="http://www.w3.org/2000/svg"><path d="M12 24c6.627 0 12-5.373 12-12S18.627 0 12 0 0 5.373 0 12s5.373 12 12 12z" fill="#6DA544"/><path d="M12 4.696L21.913 12 12 19.305 2.087 12 12 4.696z" fill="#FFDA44"/><path d="M12 16.174a4.174 4.174 0 100-8.348 4.174 4.174 0 000 8.348z" fill="#F0F0F0"/><path d="M9.913 11.74a7.02 7.02 0 00-2.085.315 4.173 4.173 0 007.59 2.34 7.034 7.034 0 00-5.505-2.655zm6.184 1.06a4.174 4.174 0 00-7.932-2.447 8.607 8.607 0 017.932 2.447z" fill="#0052B4"/></svg>