<svg width="25" height="24" fill="none" xmlns="http://www.w3.org/2000/svg"><g clip-path="url(#clip0_1246_9190)"><path d="M18.313 12a5.808 5.808 0 01-11.275 1.97l-3.324 2.66A9.933 9.933 0 0022.438 12" fill="#00AC47"/><path d="M18.313 12a5.804 5.804 0 01-2.439 4.724l3.287 2.63A9.903 9.903 0 0022.438 12" fill="#4285F4"/><path d="M6.688 12c0-.672.12-1.338.35-1.97L3.714 7.37a9.883 9.883 0 000 9.26l3.324-2.66a5.773 5.773 0 01-.35-1.97z" fill="#FFBA00"/><path d="M12.5 6.188c1.23 0 2.428.393 3.419 1.121l3.045-2.842a9.912 9.912 0 00-15.25 2.904l3.324 2.66A5.817 5.817 0 0112.5 6.188z" fill="#EA4435"/><path d="M22.438 11.25V12l-1.688 2.625h-7.875V10.5h8.813a.75.75 0 01.75.75z" fill="#4285F4"/></g><defs><clipPath id="clip0_1246_9190"><path fill="#fff" transform="translate(.5)" d="M0 0h24v24H0z"/></clipPath></defs></svg>