<svg width="24" height="20" fill="none" xmlns="http://www.w3.org/2000/svg"><path d="M20.35 19.4h-6.088a.505.505 0 01-.508-.504v-6.544H9.697v6.544a.505.505 0 01-.508.503H3.1a.505.505 0 01-.508-.503V9.277c0-.278.227-.503.508-.503.28 0 .507.225.507.503v9.116h5.074v-6.544c0-.278.227-.503.507-.503h5.074c.28 0 .507.225.507.503v6.544h5.074v-9.06c0-.279.227-.504.507-.504s.508.225.508.503v9.564a.505.505 0 01-.508.503zm2.366-7.312a.51.51 0 01-.359-.148L11.725 1.225.866 11.998a.51.51 0 01-.717 0 .5.5 0 010-.712L11.366.158a.51.51 0 01.718 0l10.99 11.07a.5.5 0 010 .712.508.508 0 01-.358.148z" fill="#1D2939"/></svg>