<svg width="24" height="24" fill="none" xmlns="http://www.w3.org/2000/svg"><g clip-path="url(#clip0_1624_73944)"><path d="M12 24c6.627 0 12-5.373 12-12S18.627 0 12 0 0 5.373 0 12s5.373 12 12 12z" fill="#F0F0F0"/><path d="M12-.001A12 12 0 001.19 6.782h21.62A12 12 0 0012-.001z" fill="#FF9811"/><path d="M12 24a12 12 0 0010.81-6.783H1.19A12 12 0 0012 24z" fill="#6DA544"/><path d="M12 16.173a4.174 4.174 0 100-8.348 4.174 4.174 0 000 8.348z" fill="#0052B4"/><path d="M12 14.608a2.609 2.609 0 100-5.218 2.609 2.609 0 000 5.218z" fill="#F0F0F0"/><path d="M12 8.78l.805 1.826 1.983-.216L13.61 12l1.178 1.61-1.983-.216L12 15.219l-.805-1.825-1.983.215L10.391 12l-1.179-1.61 1.983.216L12 8.781z" fill="#0052B4"/></g><defs><clipPath id="clip0_1624_73944"><path fill="#fff" d="M0 0h24v24H0z"/></clipPath></defs></svg>