<svg width="24" height="24" fill="none" xmlns="http://www.w3.org/2000/svg"><path d="M12 24c6.627 0 12-5.373 12-12S18.627 0 12 0 0 5.373 0 12s5.373 12 12 12z" fill="#D80027"/><path d="M17.868 12l-2.398 1.128 1.277 2.322-2.604-.498-.33 2.63L12 15.649l-1.813 1.935-.33-2.63-2.604.497 1.277-2.322L6.13 12l2.398-1.128L7.252 8.55l2.604.498.33-2.63 1.813 1.934 1.814-1.935.33 2.631 2.604-.498-1.277 2.322L17.868 12z" fill="#FFDA44"/><path d="M12 15.652a3.652 3.652 0 100-7.305 3.652 3.652 0 000 7.305z" fill="#D80027"/><path d="M10.174 12a2.64 2.64 0 00-.26.014c.003.505.186.968.488 1.328a3.66 3.66 0 01.706-1.168 2.595 2.595 0 00-.934-.173zm1.124 1.967a2.082 2.082 0 001.404 0A2.61 2.61 0 0012 12.749a2.61 2.61 0 00-.702 1.218zm2.51-3.01a2.086 2.086 0 00-3.615 0 3.628 3.628 0 011.808.491 3.629 3.629 0 011.807-.49zm-.915 1.217c.303.339.544.734.705 1.168.302-.36.485-.822.489-1.328a2.612 2.612 0 00-1.194.16z" fill="#FFDA44"/></svg>