<svg width="139" height="16" fill="none" xmlns="http://www.w3.org/2000/svg"><g clip-path="url(#clip0_1310_2878)"><g opacity=".7" filter="url(#filter0_i_1310_2878)"><path opacity=".9" d="M3.873 7.937H.248V15.9h3.625V7.937z" fill="#6BA6F6"/></g><g opacity=".5" filter="url(#filter1_i_1310_2878)"><path opacity=".7" d="M15.955 12.624H.248v3.316h15.707v-3.316z" fill="#31A6F6"/></g><g opacity=".5" filter="url(#filter2_i_1310_2878)"><path opacity=".7" d="M15.955.049H12.33v7.926h3.625V.049z" fill="#31C4F6"/></g><g opacity=".9" filter="url(#filter3_i_1310_2878)"><path opacity=".8" d="M9.95.047H6.326v15.875H9.95V.047z" fill="#266DF5"/></g><g opacity=".9" filter="url(#filter4_i_1310_2878)"><path opacity=".9" d="M16.093.047H.031V3.3h16.062V.047z" fill="#266DF5"/></g><path d="M22.022 2.918h4.728v12.818h3.228V2.918h4.728V.212H22.022v2.706zm14.773 12.818h3.265v-5.503h2.383l2.926 5.503h3.604l-3.28-6.034c1.757-.758 2.73-2.296 2.73-4.419 0-3.085-2.029-5.07-5.535-5.07h-6.093v15.523zm3.265-8.141v-4.7h2.202c1.885 0 2.798.842 2.798 2.388 0 1.539-.913 2.312-2.783 2.312H40.06zm24.863.379C64.923 2.896 61.786 0 57.69 0c-4.118 0-7.232 2.896-7.232 7.974 0 5.056 3.114 7.974 7.232 7.974 4.095 0 7.232-2.896 7.232-7.974zm-3.31 0c0 3.29-1.554 5.071-3.922 5.071-2.376 0-3.922-1.781-3.922-5.071s1.546-5.07 3.922-5.07c2.368 0 3.921 1.78 3.921 5.07zm3.89-7.762l5.633 10.036v5.488h3.243v-5.488L80.012.212h-3.657l-3.522 6.686h-.15L69.16.212h-3.657zm19.769 15.524h3.182l2.934-10.15h.12l2.941 10.15h3.183L102.05.212h-3.566l-2.557 10.81h-.136L92.98.211h-3.054l-2.82 10.786h-.129L84.42.212h-3.567l4.419 15.524zm18.526 0h10.437V13.03h-7.172V9.323h6.606V6.617h-6.606V2.918h7.142V.212h-10.407v15.524zm13.003 0h9.886V13.03h-6.621V.212h-3.265v15.524zm12.048 0h9.886V13.03h-6.621V.212h-3.265v15.524z" fill="#2460F6"/></g><defs><filter id="filter0_i_1310_2878" x=".248" y="7.937" width="4.625" height="8.964" filterUnits="userSpaceOnUse" color-interpolation-filters="sRGB"><feFlood flood-opacity="0" result="BackgroundImageFix"/><feBlend in="SourceGraphic" in2="BackgroundImageFix" result="shape"/><feColorMatrix in="SourceAlpha" values="0 0 0 0 0 0 0 0 0 0 0 0 0 0 0 0 0 0 127 0" result="hardAlpha"/><feOffset dx="1" dy="1"/><feGaussianBlur stdDeviation="1"/><feComposite in2="hardAlpha" operator="arithmetic" k2="-1" k3="1"/><feColorMatrix values="0 0 0 0 0 0 0 0 0 0 0 0 0 0 0 0 0 0 0.25 0"/><feBlend in2="shape" result="effect1_innerShadow_1310_2878"/></filter><filter id="filter1_i_1310_2878" x=".248" y="12.624" width="16.706" height="4.315" filterUnits="userSpaceOnUse" color-interpolation-filters="sRGB"><feFlood flood-opacity="0" result="BackgroundImageFix"/><feBlend in="SourceGraphic" in2="BackgroundImageFix" result="shape"/><feColorMatrix in="SourceAlpha" values="0 0 0 0 0 0 0 0 0 0 0 0 0 0 0 0 0 0 127 0" result="hardAlpha"/><feOffset dx="1" dy="1"/><feGaussianBlur stdDeviation="1"/><feComposite in2="hardAlpha" operator="arithmetic" k2="-1" k3="1"/><feColorMatrix values="0 0 0 0 0 0 0 0 0 0 0 0 0 0 0 0 0 0 0.25 0"/><feBlend in2="shape" result="effect1_innerShadow_1310_2878"/></filter><filter id="filter2_i_1310_2878" x="12.33" y=".049" width="4.625" height="7.926" filterUnits="userSpaceOnUse" color-interpolation-filters="sRGB"><feFlood flood-opacity="0" result="BackgroundImageFix"/><feBlend in="SourceGraphic" in2="BackgroundImageFix" result="shape"/><feColorMatrix in="SourceAlpha" values="0 0 0 0 0 0 0 0 0 0 0 0 0 0 0 0 0 0 127 0" result="hardAlpha"/><feOffset dx="1"/><feGaussianBlur stdDeviation="1"/><feComposite in2="hardAlpha" operator="arithmetic" k2="-1" k3="1"/><feColorMatrix values="0 0 0 0 0 0 0 0 0 0 0 0 0 0 0 0 0 0 0.25 0"/><feBlend in2="shape" result="effect1_innerShadow_1310_2878"/></filter><filter id="filter3_i_1310_2878" x="6.326" y=".047" width="4.625" height="16.875" filterUnits="userSpaceOnUse" color-interpolation-filters="sRGB"><feFlood flood-opacity="0" result="BackgroundImageFix"/><feBlend in="SourceGraphic" in2="BackgroundImageFix" result="shape"/><feColorMatrix in="SourceAlpha" values="0 0 0 0 0 0 0 0 0 0 0 0 0 0 0 0 0 0 127 0" result="hardAlpha"/><feOffset dx="1" dy="1"/><feGaussianBlur stdDeviation="1"/><feComposite in2="hardAlpha" operator="arithmetic" k2="-1" k3="1"/><feColorMatrix values="0 0 0 0 0 0 0 0 0 0 0 0 0 0 0 0 0 0 0.25 0"/><feBlend in2="shape" result="effect1_innerShadow_1310_2878"/></filter><filter id="filter4_i_1310_2878" x=".031" y=".047" width="18.062" height="4.253" filterUnits="userSpaceOnUse" color-interpolation-filters="sRGB"><feFlood flood-opacity="0" result="BackgroundImageFix"/><feBlend in="SourceGraphic" in2="BackgroundImageFix" result="shape"/><feColorMatrix in="SourceAlpha" values="0 0 0 0 0 0 0 0 0 0 0 0 0 0 0 0 0 0 127 0" result="hardAlpha"/><feOffset dx="2" dy="1"/><feGaussianBlur stdDeviation="2"/><feComposite in2="hardAlpha" operator="arithmetic" k2="-1" k3="1"/><feColorMatrix values="0 0 0 0 0 0 0 0 0 0 0 0 0 0 0 0 0 0 0.25 0"/><feBlend in2="shape" result="effect1_innerShadow_1310_2878"/></filter><clipPath id="clip0_1310_2878"><path fill="#fff" d="M0 0h138.735v16H0z"/></clipPath></defs></svg>