<svg width="22" height="17" fill="none" xmlns="http://www.w3.org/2000/svg"><path d="M21.935 6.13a.474.474 0 00-.448-.44c-2.327-.144-4.452.39-6.252 1.546-.137-2.741-1.56-5.32-3.977-7.127a.483.483 0 00-.577 0C8.268 1.913 6.847 4.486 6.705 7.224 4.91 6.077 2.79 5.55.47 5.689a.474.474 0 00-.448.442c-.187 3.044.816 5.741 2.902 7.8a10.614 10.614 0 008.055 3.04 10.615 10.615 0 008.054-3.039c2.086-2.06 3.089-4.758 2.902-7.801zm-11.427 9.914a9.7 9.7 0 01-6.909-2.78C1.81 11.498.9 9.204.957 6.612c2.247-.046 4.303.62 5.975 1.94.265.21.522.433.762.67.03.029.055.06.085.09.178.18.35.367.512.56.057.067.11.137.164.206.135.17.267.345.39.523a9.563 9.563 0 01.497.805c.029.052.06.103.087.155.273.518.496 1.061.668 1.619.033.108.059.22.087.329.042.157.082.314.117.473.03.147.057.296.08.445.085.518.132 1.043.127 1.572v.046zm.578-3.528c-.033.094-.078.183-.108.278-.028-.088-.07-.171-.1-.259a10.853 10.853 0 00-.467-1.128 10.183 10.183 0 00-.27-.504c-.098-.176-.194-.352-.304-.523-.112-.174-.236-.342-.358-.51-.106-.145-.206-.296-.32-.437a10.52 10.52 0 00-.718-.798c-.025-.026-.046-.055-.072-.08-.23-.227-.473-.445-.725-.65a2.71 2.71 0 01-.013-.238c0-2.494 1.212-4.875 3.338-6.584 2.127 1.71 3.34 4.09 3.34 6.584 0 .085-.007.168-.015.25-.241.199-.478.412-.706.637-.025.024-.046.053-.07.078-.255.256-.497.523-.72.8-.113.14-.212.288-.317.432-.124.17-.25.34-.362.516-.11.17-.206.348-.305.524-.092.165-.184.329-.267.497a11.135 11.135 0 00-.462 1.114zm7.272.75c-1.841 1.817-4.364 2.787-6.909 2.78V16a9.234 9.234 0 01.135-1.632 8.662 8.662 0 01.209-.943c.02-.077.039-.154.062-.228a9.4 9.4 0 01.683-1.654l.055-.1c.124-.227.258-.45.4-.667.034-.05.067-.101.102-.15a9.7 9.7 0 01.442-.593c.038-.047.073-.095.112-.14.194-.232.398-.456.614-.67.056-.055.117-.102.174-.156.182-.171.366-.34.557-.492 1.675-1.337 3.738-2.01 6.008-1.962.054 2.592-.854 4.885-2.643 6.652z" fill="#1D2939"/></svg>