<svg width="24" height="24" fill="none" xmlns="http://www.w3.org/2000/svg"><g clip-path="url(#clip0_1624_74046)"><path d="M12 24c6.627 0 12-5.373 12-12S18.627 0 12 0 0 5.373 0 12s5.373 12 12 12z" fill="#F0F0F0"/><path d="M.414 15.13a12.01 12.01 0 004.282 6.391v-6.39H.414zm10.543 8.825c.343.03.691.045 1.043.045 5.544 0 10.21-3.76 11.587-8.87h-12.63v8.825zM23.587 8.87C22.21 3.76 17.544 0 12 0c-.352 0-.7.017-1.043.046V8.87h12.63zM4.696 2.48A12.01 12.01 0 00.414 8.87h4.282V2.48z" fill="#D80027"/><path d="M23.898 10.434H9.391V.284a11.97 11.97 0 00-3.13 1.176v8.975H.1a12.102 12.102 0 000 3.13h6.16v8.976c.97.53 2.021.928 3.13 1.174v-10.15h14.507a12.121 12.121 0 000-3.13z" fill="#0052B4"/></g><defs><clipPath id="clip0_1624_74046"><path fill="#fff" d="M0 0h24v24H0z"/></clipPath></defs></svg>