<svg width="24" height="24" fill="none" xmlns="http://www.w3.org/2000/svg"><mask id="a" style="mask-type:alpha" maskUnits="userSpaceOnUse" x="0" y="0" width="24" height="24"><path d="M12 24c6.627 0 12-5.373 12-12S18.627 0 12 0 0 5.373 0 12s5.373 12 12 12z" fill="#fff"/></mask><g mask="url(#a)"><path d="M12 24c6.627 0 12-5.373 12-12S18.627 0 12 0 0 5.373 0 12s5.373 12 12 12z" fill="#D8D8D8"/><path fill-rule="evenodd" clip-rule="evenodd" d="M-.049-.816h25.042V24.03H-.049V-.816z" fill="#E7E7E7"/><path fill-rule="evenodd" clip-rule="evenodd" d="M22.414 24.21H2.239c0-5.033 5.208-8.052 10.087-8.052 4.88 0 10.088 3.02 10.088 8.051zM12.326 14.144c-3.138 0-4.034-3.512-4.034-6.038 0-2.527 1.558-4.026 4.034-4.026 2.477 0 4.035 1.5 4.035 4.026s-.896 6.038-4.035 6.038z" fill="#FAFAFA"/></g></svg>