<svg width="24" height="24" fill="none" xmlns="http://www.w3.org/2000/svg"><g clip-path="url(#clip0_1624_73952)"><path d="M12 24c6.627 0 12-5.373 12-12S18.627 0 12 0 0 5.373 0 12s5.373 12 12 12z" fill="#F0F0F0"/><path d="M12 0v12l-8.485 8.485A11.963 11.963 0 0012 24c6.628 0 12-5.373 12-12S12 0 12 0z" fill="#D80027"/><path d="M12 0a11.963 11.963 0 00-8.485 3.515L12 12h12c0-6.627-5.372-12-12-12z" fill="#0052B4"/><path d="M8.217 12l-1.465-.69.78-1.419-1.591.305-.202-1.608L4.631 9.77 3.522 8.588l-.202 1.608-1.59-.305.78 1.42L1.043 12l1.465.69-.78 1.418 1.592-.304.201 1.608 1.109-1.183 1.108 1.183.202-1.608 1.591.304-.78-1.419L8.217 12zM3.2 4.695l.489.682.798-.253-.497.674.487.682-.795-.265-.497.675.006-.839-.795-.264.799-.254.006-.838zm0 12.415l.489.681.798-.253-.497.675.487.681-.795-.264-.497.674.006-.838-.795-.265.799-.253.006-.838zm6.956-6.207l-.487.682-.8-.253.498.674-.487.682.795-.265.498.675-.007-.839.796-.264-.8-.254-.006-.838z" fill="#FFDA44"/></g><defs><clipPath id="clip0_1624_73952"><path fill="#fff" d="M0 0h24v24H0z"/></clipPath></defs></svg>