<svg width="23" height="20" fill="none" xmlns="http://www.w3.org/2000/svg"><path d="M19.61 3H3.347A3.352 3.352 0 000 6.348v9.565a3.352 3.352 0 003.348 3.348h16.261a3.352 3.352 0 003.348-3.348V6.348A3.352 3.352 0 0019.61 3zM22 15.913a2.393 2.393 0 01-2.39 2.392H3.347a2.393 2.393 0 01-2.391-2.392V6.348a2.393 2.393 0 012.39-2.391H19.61a2.393 2.393 0 012.392 2.39v9.566zM13.688 0H9.311C8.59 0 8 .505 8 1.125v1.5c0 .207.196.375.438.375h6.124c.242 0 .438-.168.438-.375v-1.5C15 .505 14.411 0 13.687 0zm.437 3h-5.25V1.5c0-.275.197-.5.438-.5h4.374c.241 0 .438.225.438.5V3z" fill="#1D2939"/><path d="M4.762 3h-.61C4.068 3 4 3.214 4 3.478v15.305c0 .264.068.478.152.478h.61c.085 0 .153-.214.153-.478V3.478c0-.264-.068-.478-.153-.478zm14 0h-.61c-.084 0-.152.214-.152.478v15.305c0 .264.068.478.152.478h.61c.085 0 .153-.214.153-.478V3.478c0-.264-.068-.478-.153-.478z" fill="#1D2939"/></svg>