<svg width="20" height="20" fill="none" xmlns="http://www.w3.org/2000/svg"><path d="M10 20c5.523 0 10-4.477 10-10S15.523 0 10 0 0 4.477 0 10s4.477 10 10 10z" fill="#98A2B3"/><path fill-rule="evenodd" clip-rule="evenodd" d="M4.526 9.894c2.916-1.27 4.86-2.107 5.832-2.512 2.777-1.155 3.354-1.355 3.73-1.362.083-.001.268.02.388.116a.421.421 0 01.142.271c.014.078.03.255.017.394-.15 1.581-.802 5.418-1.133 7.19-.14.749-.416 1-.683 1.024-.581.054-1.022-.383-1.585-.752-.88-.577-1.377-.936-2.231-1.499-.988-.65-.347-1.008.215-1.593.147-.153 2.706-2.48 2.756-2.691.006-.026.012-.125-.047-.177-.058-.052-.145-.034-.207-.02-.088.02-1.494.95-4.218 2.788-.4.274-.76.408-1.084.4-.358-.007-1.044-.201-1.555-.367-.626-.204-1.124-.311-1.08-.657.022-.18.27-.364.743-.553z" fill="#fff"/></svg>