<svg width="24" height="24" viewBox="0 0 24 24" fill="none" xmlns="http://www.w3.org/2000/svg">
<path fill-rule="evenodd" clip-rule="evenodd" d="M3 4.75C3 4.33579 3.33579 4 3.75 4H16.5C16.9142 4 17.25 4.33579 17.25 4.75C17.25 5.16421 16.9142 5.5 16.5 5.5H3.75C3.33579 5.5 3 5.16421 3 4.75ZM16.5 8.5C16.9142 8.5 17.25 8.83579 17.25 9.25V16.4393L19.7197 13.9697C20.0126 13.6768 20.4874 13.6768 20.7803 13.9697C21.0732 14.2626 21.0732 14.7374 20.7803 15.0303L17.0303 18.7803C16.9584 18.8522 16.8755 18.9065 16.7871 18.9431C16.6987 18.9798 16.6017 19 16.5 19C16.3983 19 16.3013 18.9798 16.2129 18.9431C16.1245 18.9065 16.0416 18.8522 15.9697 18.7803L12.2197 15.0303C11.9268 14.7374 11.9268 14.2626 12.2197 13.9697C12.5126 13.6768 12.9874 13.6768 13.2803 13.9697L15.75 16.4393V9.25C15.75 8.83579 16.0858 8.5 16.5 8.5ZM3.75 10C3.33579 10 3 10.3358 3 10.75C3 11.1642 3.33579 11.5 3.75 11.5H10.5C10.9142 11.5 11.25 11.1642 11.25 10.75C11.25 10.3358 10.9142 10 10.5 10H3.75ZM3.75 16C3.33579 16 3 16.3358 3 16.75C3 17.1642 3.33579 17.5 3.75 17.5H9C9.41421 17.5 9.75 17.1642 9.75 16.75C9.75 16.3358 9.41421 16 9 16H3.75Z" fill="#344054"/>
</svg>
