<svg width="24" height="24" fill="none" xmlns="http://www.w3.org/2000/svg"><g clip-path="url(#clip0_1624_74016)"><path d="M24 12c0-1.468-.264-2.874-.746-4.174L12 7.304.746 7.826A11.975 11.975 0 000 12c0 1.468.264 2.874.746 4.174L12 16.696l11.254-.522c.482-1.3.746-2.706.746-4.174z" fill="#0052B4"/><path d="M12 24c5.16 0 9.558-3.257 11.254-7.827H.747C2.442 20.743 6.84 24 12 24z" fill="#FF9811"/><path d="M.746 7.826h22.507C21.558 3.256 17.16 0 12 0S2.442 3.256.746 7.826z" fill="#D80027"/></g><defs><clipPath id="clip0_1624_74016"><path fill="#fff" d="M0 0h24v24H0z"/></clipPath></defs></svg>