<svg width="24" height="24" fill="none" xmlns="http://www.w3.org/2000/svg"><g clip-path="url(#clip0_1624_73990)"><path d="M12 24c6.627 0 12-5.373 12-12S18.627 0 12 0 0 5.373 0 12s5.373 12 12 12z" fill="#F0F0F0"/><path d="M24 12.001a12 12 0 00-6.782-10.81v21.62A12 12 0 0024.001 12zM0 12a12 12 0 006.783 10.81V1.19A12 12 0 000 12.001zm14.088 1.566l2.086-1.043L15.131 12v-1.044L13.044 12l1.043-2.087h-1.043l-1.043-1.565-1.044 1.565H9.914L10.957 12 8.87 10.957v1.044l-1.043.522 2.087 1.043-.522 1.043h2.087v1.566h1.043v-1.566h2.087l-.521-1.043z" fill="#D80027"/></g><defs><clipPath id="clip0_1624_73990"><path fill="#fff" d="M0 0h24v24H0z"/></clipPath></defs></svg>