<svg width="16" height="15" fill="none" xmlns="http://www.w3.org/2000/svg"><mask id="a" fill="#fff"><path fill-rule="evenodd" clip-rule="evenodd" d="M7.82.055a1.25 1.25 0 00-.605-.032l.144.736-.147-.735L2.168 1.03a.75.75 0 00-.589.589L.573 6.663v.002A1.25 1.25 0 00.916 7.79l6.522 6.522a1.243 1.243 0 001.772 0l5.652-5.651a1.245 1.245 0 000-1.772L8.34.367h-.001A1.25 1.25 0 007.82.055zm5.806 7.72L7.372 1.52l-4.42.882-.881 4.42 6.253 6.254 5.302-5.302zM5.69 4.39a.75.75 0 11-1.5 0 .75.75 0 011.5 0z"/></mask><path fill-rule="evenodd" clip-rule="evenodd" d="M7.82.055a1.25 1.25 0 00-.605-.032l.144.736-.147-.735L2.168 1.03a.75.75 0 00-.589.589L.573 6.663v.002A1.25 1.25 0 00.916 7.79l6.522 6.522a1.243 1.243 0 001.772 0l5.652-5.651a1.245 1.245 0 000-1.772L8.34.367h-.001A1.25 1.25 0 007.82.055zm5.806 7.72L7.372 1.52l-4.42.882-.881 4.42 6.253 6.254 5.302-5.302zM5.69 4.39a.75.75 0 11-1.5 0 .75.75 0 011.5 0z" fill="#344054"/><path d="M7.215.023l-.289-1.472-1.472.288.288 1.473L7.215.023zm.605.032l.438-1.435L7.82.055zm-.461.704l-1.471.294L8.83.47 7.359.76zM7.212.024l1.47-.294-.293-1.47-1.47.293.293 1.47zM2.168 1.03l.294 1.471-.294-1.47zm-.589.589l1.471.293-1.47-.293zM.573 6.663l-.298 1.47 1.475.298.294-1.475-1.47-.293zm0 0l.298-1.47-1.48-.3-.29 1.481 1.472.289zm0 .002l1.472.288-1.472-.288zm.03.606l-1.434.438 1.435-.438zm.313.519l-1.06 1.06v.001L.916 7.79zm0 0l1.061-1.06v-.001L.916 7.79zm6.522 6.522l1.069-1.053-.008-.007-1.06 1.06zm.404.274l-.582 1.382.582-1.383zm.965 0l-.582-1.383.582 1.383zm.403-.274l-1.06-1.06-.008.007 1.068 1.053zm5.652-5.651l-1.053-1.069-.008.008 1.06 1.06zm.273-.403l-1.383-.582 1.383.582zm0-.966l1.382-.582-1.382.582zm-.273-.403L13.8 7.95l.008.008 1.053-1.068zM8.34.367l-1.062 1.06L8.34.368zm-.001 0L9.4-.693 8.34.366zM7.372 1.52L8.433.461l-.567-.568-.787.157.293 1.471zm6.254 6.254l1.06 1.06 1.061-1.06-1.06-1.06-1.06 1.06zM2.952 2.403L2.66.933l-.982.195-.196.982 1.471.293zm-.881 4.42L.6 6.53l-.157.787.567.567 1.06-1.06zm6.253 6.254l-1.06 1.06 1.06 1.061 1.06-1.06-1.06-1.061zM7.503 1.495a.25.25 0 01-.121-.006l.876-2.869a2.75 2.75 0 00-1.332-.069l.577 2.944zM8.83.471l-.144-.736-2.945.577.145.736L8.83.47zM5.74.317l.147.736L8.83.466 8.683-.27 5.74.317zM2.46 2.501l5.044-1.006-.587-2.942L1.875-.441l.587 2.942zm.59-.589a.75.75 0 01-.59.59L1.876-.442A2.25 2.25 0 00.108 1.325l2.942.587zM2.043 6.956L3.05 1.912.108 1.325-.898 6.37l2.942.587zM.275 8.133l.596-2.94-.596 2.94zm1.77-1.18v-.002l-2.944-.577v.003l2.944.576zm-.007-.12a.25.25 0 01.007.12L-.9 6.377c-.087.443-.064.9.068 1.332l2.87-.877zm-.062-.104a.25.25 0 01.062.103L-.83 7.71c.132.431.368.823.687 1.142l2.12-2.122zm0 0L-.144 8.85l2.12-2.122zM8.5 13.252L1.977 6.73-.144 8.85l6.522 6.523 2.121-2.121zm-.075-.049c.03.013.06.032.083.056L6.37 15.365c.254.258.556.463.89.603l1.164-2.765zm-.1-.02c.034 0 .068.007.1.02L7.26 15.968a2.74 2.74 0 001.064.215v-3zm-.1.02a.257.257 0 01.1-.02v3c.366 0 .728-.073 1.065-.215l-1.164-2.765zm-.082.056a.259.259 0 01.083-.056l1.164 2.765a2.74 2.74 0 00.89-.603L8.141 13.26zM13.8 7.6l-5.652 5.652 2.122 2.121 5.651-5.652-2.121-2.12zm-.049.076a.255.255 0 01.057-.084l2.106 2.137c.257-.254.462-.556.602-.89l-2.765-1.163zm-.02.099c0-.034.007-.068.02-.1l2.765 1.164c.142-.337.215-.698.215-1.064h-3zm.02.1a.255.255 0 01-.02-.1h3c0-.366-.073-.728-.215-1.065l-2.765 1.164zm.057.082a.255.255 0 01-.057-.083l2.765-1.164a2.746 2.746 0 00-.602-.89l-2.106 2.137zm-6.53-6.53L13.8 7.95l2.121-2.122L9.4-.694 7.28 1.428zm-.001 0L9.4-.693l-2.123 2.12zm.104.062a.25.25 0 01-.104-.062L9.4-.693a2.75 2.75 0 00-1.142-.687l-.876 2.87zm-1.07 1.093l6.253 6.254 2.122-2.122L8.433.461 6.312 2.582zM3.246 3.874l4.42-.882L7.079.05l-4.42.882.587 2.942zm.296 3.243l.881-4.42-2.942-.587L.6 6.53l2.942.587zm5.843 4.9L3.13 5.762 1.01 7.883l6.254 6.254 2.12-2.12zm3.18-5.303l-5.301 5.302 2.12 2.121 5.303-5.301-2.122-2.122zM4.94 6.641a2.25 2.25 0 002.25-2.25h-3a.75.75 0 01.75-.75v3zM2.69 4.39a2.25 2.25 0 002.25 2.25v-3a.75.75 0 01.75.75h-3zm2.25-2.25a2.25 2.25 0 00-2.25 2.25h3a.75.75 0 01-.75.75v-3zm2.25 2.25a2.25 2.25 0 00-2.25-2.25v3a.75.75 0 01-.75-.75h3z" fill="#344054" mask="url(#a)"/></svg>