<svg width="24" height="24" fill="none" xmlns="http://www.w3.org/2000/svg"><g clip-path="url(#clip0_1624_74043)"><path d="M.746 7.825A11.975 11.975 0 000 12c0 1.468.264 2.874.746 4.174L12 17.217l11.253-1.044c.482-1.3.747-2.706.747-4.174 0-1.468-.265-2.874-.747-4.174L12 6.782.746 7.825z" fill="#F0F0F0"/><path d="M12-.001C6.84-.001 2.442 3.256.747 7.825h22.507C21.558 3.255 17.16 0 12 0z" fill="#D80027"/><path d="M12 24c5.16 0 9.558-3.257 11.254-7.827H.747C2.442 20.743 6.84 24 12 24z" fill="#6DA544"/></g><defs><clipPath id="clip0_1624_74043"><path fill="#fff" d="M0 0h24v24H0z"/></clipPath></defs></svg>