<svg width="24" height="24" fill="none" xmlns="http://www.w3.org/2000/svg"><g clip-path="url(#clip0_1624_73986)"><path d="M12 24c6.627 0 12-5.373 12-12S18.627 0 12 0 0 5.373 0 12s5.373 12 12 12z" fill="#F0F0F0"/><path d="M24 12a12 12 0 00-6.783-10.81v21.62A12 12 0 0024 11.999z" fill="#D80027"/><path d="M0 12a12 12 0 006.783 10.809V1.19A12 12 0 000 12zm8.87 0a3.13 3.13 0 006.26 0v-1.044H8.87v1.043z" fill="#6DA544"/><path d="M16.174 9.913h-3.13a1.044 1.044 0 00-2.088 0h-3.13c0 .577.502 1.044 1.078 1.044h-.035c0 .576.467 1.043 1.044 1.043 0 .577.467 1.044 1.043 1.044h2.087c.576 0 1.044-.467 1.044-1.044.576 0 1.043-.467 1.043-1.043h-.035c.577 0 1.079-.467 1.079-1.044z" fill="#FF9811"/></g><defs><clipPath id="clip0_1624_73986"><path fill="#fff" d="M0 0h24v24H0z"/></clipPath></defs></svg>