<svg width="24" height="24" viewBox="0 0 24 24" fill="none" xmlns="http://www.w3.org/2000/svg">
<path d="M5.42236 9.7501C5.42111 8.86096 5.59578 7.98035 5.93632 7.15901C6.27686 6.33766 6.77653 5.5918 7.40655 4.96438C8.03658 4.33697 8.78451 3.84041 9.60727 3.50329C10.43 3.16617 11.3114 2.99516 12.2005 3.0001C15.913 3.02823 18.8849 6.1126 18.8849 9.83448V10.5001C18.8849 13.8564 19.588 15.8064 20.2067 16.8751C20.2724 16.9889 20.3071 17.118 20.3072 17.2494C20.3073 17.3809 20.2729 17.51 20.2074 17.624C20.1419 17.7379 20.0476 17.8326 19.9339 17.8986C19.8203 17.9647 19.6913 17.9996 19.5599 18.0001H4.74736C4.61593 17.9996 4.48693 17.9647 4.37328 17.8986C4.25964 17.8326 4.16533 17.7379 4.09982 17.624C4.03431 17.51 3.99988 17.3809 4 17.2494C4.00012 17.118 4.03477 16.9889 4.10048 16.8751C4.71923 15.8064 5.42236 13.8564 5.42236 10.5001V9.7501Z" stroke="#344054" stroke-width="1.5" stroke-linecap="round" stroke-linejoin="round"/>
<path d="M9.15332 18.0001V18.7501C9.15332 19.5458 9.46939 20.3088 10.032 20.8714C10.5946 21.4341 11.3577 21.7501 12.1533 21.7501C12.949 21.7501 13.712 21.4341 14.2746 20.8714C14.8372 20.3088 15.1533 19.5458 15.1533 18.7501V18.0001" stroke="#344054" stroke-width="1.5" stroke-linecap="round" stroke-linejoin="round"/>
</svg>
