<svg width="24" height="24" fill="none" xmlns="http://www.w3.org/2000/svg"><g clip-path="url(#clip0_1624_73948)"><path d="M24 12c0 6.627-5.373 12-12 12S0 18.627 0 12C0 12.003 12 .001 12 0c6.627 0 12 5.373 12 12z" fill="#0052B4"/><path d="M11.968 12H12v-.032l-.032.032z" fill="#F0F0F0"/><path d="M12 6.26V0h-.002C5.372.001 0 5.373 0 12h6.261V8.474L9.787 12h2.181l.033-.032V9.786L8.475 6.261H12z" fill="#F0F0F0"/><path d="M6.071 1.565A12.057 12.057 0 001.565 6.07V12h3.13V4.695H12v-3.13H6.071z" fill="#D80027"/><path d="M12 10.525L7.737 6.26H6.26L12 12v-1.476zm8.781-1.62l.26.797h.837l-.678.492.26.797-.679-.492-.678.492.26-.797-.679-.492h.838l.26-.797zm-2.996 5.739l.389 1.195h1.257l-1.018.74.39 1.195-1.018-.739-1.017.739.388-1.196-1.017-.739h1.257l.389-1.195zm.114-9.392l.324.996h1.047l-.847.616.323.997-.847-.616-.848.616.324-.997-.848-.616h1.048l.324-.996zM15.015 8.87l.389 1.196h1.257l-1.017.739.389 1.195-1.018-.739-1.017.74.389-1.196-1.017-.74h1.257l.388-1.195z" fill="#D80027"/></g><defs><clipPath id="clip0_1624_73948"><path fill="#fff" d="M0 0h24v24H0z"/></clipPath></defs></svg>