<svg width="24" height="24" viewBox="0 0 24 24" fill="none" xmlns="http://www.w3.org/2000/svg">
<path fill-rule="evenodd" clip-rule="evenodd" d="M6.75013 9C6.75013 6.1005 9.10063 3.75 12.0001 3.75C14.8996 3.75 17.2501 6.1005 17.2501 9C17.2501 11.8732 14.9421 14.2073 12.0789 14.2494C12.0526 14.2492 12.0264 14.2491 12.0001 14.2491C11.9739 14.2491 11.9476 14.2492 11.9214 14.2494C9.05818 14.2073 6.75013 11.8732 6.75013 9ZM8.53737 14.7953C6.56828 13.6162 5.25013 11.4621 5.25013 9C5.25013 5.27208 8.2722 2.25 12.0001 2.25C15.728 2.25 18.7501 5.27208 18.7501 9C18.7501 11.4621 17.432 13.6162 15.4629 14.7953C16.2125 15.0378 16.9376 15.3594 17.6256 15.7566C19.3359 16.7442 20.7561 18.1646 21.7434 19.875C21.9505 20.2338 21.8276 20.6925 21.4688 20.8995C21.1101 21.1066 20.6514 20.9837 20.4443 20.6249C19.5886 19.1425 18.3578 17.9115 16.8755 17.0556C15.4172 16.2136 13.7661 15.7638 12.0832 15.7495C12.0555 15.7498 12.0279 15.75 12.0001 15.75C11.9724 15.75 11.9447 15.7498 11.9171 15.7495C10.2341 15.7638 8.58303 16.2136 7.12474 17.0556C5.64246 17.9115 4.41161 19.1425 3.55593 20.6249C3.34886 20.9837 2.89017 21.1066 2.53144 20.8995C2.1727 20.6925 2.04975 20.2338 2.25682 19.875C3.24415 18.1646 4.66435 16.7442 6.37468 15.7566C7.06262 15.3594 7.78775 15.0378 8.53737 14.7953Z" fill="#344054"/>
</svg>
