<svg width="24" height="24" viewBox="0 0 24 24" fill="none" xmlns="http://www.w3.org/2000/svg">
<path fill-rule="evenodd" clip-rule="evenodd" d="M16.1407 4.5L16.1384 4.50001C15.6264 4.50157 15.1167 4.57024 14.6225 4.70428C14.2227 4.8127 13.9865 5.22468 14.095 5.62445C14.2034 6.02422 14.6154 6.2604 15.0151 6.15198C15.3825 6.05235 15.7613 6.00126 16.1418 6C17.2354 6.00031 18.2842 6.43487 19.0575 7.20819C19.8311 7.98178 20.2657 9.03099 20.2657 10.125C20.2657 11.219 19.8311 12.2682 19.0575 13.0418C18.2839 13.8154 17.2347 14.25 16.1407 14.25C16.1405 14.25 16.1404 14.25 16.1402 14.25C16.1339 14.25 16.1276 14.2501 16.1213 14.2502C16.0248 14.2527 15.9329 14.2734 15.8488 14.3089C15.5794 14.4229 15.3905 14.6896 15.3907 15.0005C15.3907 15.0521 15.396 15.1025 15.4059 15.1512C15.4759 15.4929 15.7783 15.75 16.1407 15.75C16.1408 15.75 16.141 15.75 16.1412 15.75C17.3447 15.7493 18.5307 16.0385 19.5987 16.5933C20.6667 17.1481 21.5854 17.9521 22.2768 18.9371C22.5148 19.2762 22.9825 19.3581 23.3216 19.1201C23.6606 18.8822 23.7425 18.4144 23.5046 18.0754C22.6746 16.893 21.5721 15.9281 20.2902 15.2622C19.9555 15.0883 19.6112 14.9362 19.2593 14.8063C19.5659 14.6021 19.8538 14.3668 20.1182 14.1025C21.1731 13.0476 21.7657 11.6168 21.7657 10.125C21.7657 8.63316 21.1731 7.20242 20.1182 6.14753C19.0633 5.09264 17.6325 4.5 16.1407 4.5ZM4.37506 10.125C4.37506 7.84683 6.22189 6 8.50006 6C10.7782 6 12.6251 7.84683 12.6251 10.125C12.6251 12.3892 10.8008 14.2273 8.54191 14.2498L8.50006 14.2497L8.45821 14.2498C6.19931 14.2273 4.37506 12.3892 4.37506 10.125ZM14.1251 10.125C14.1251 12.0781 13.1296 13.7987 11.6184 14.8072C11.9702 14.9371 12.3144 15.0893 12.6491 15.2631C13.9307 15.9289 15.0333 16.8934 15.8637 18.0751C16.1019 18.414 16.0202 18.8818 15.6813 19.1199C15.3424 19.3581 14.8746 19.2764 14.6364 18.9375C13.9444 17.9528 13.0256 17.149 11.9576 16.5942C10.9027 16.0462 9.73289 15.7569 8.54462 15.7498L8.50006 15.75L8.4555 15.7498C7.26724 15.7569 6.09743 16.0462 5.04257 16.5942C3.97453 17.149 3.0557 17.9528 2.3637 18.9375C2.12554 19.2764 1.65775 19.3581 1.31884 19.1199C0.979942 18.8818 0.898271 18.414 1.13643 18.0751C1.96683 16.8934 3.06942 15.9289 4.35107 15.2631C4.68568 15.0893 5.02993 14.9371 5.38168 14.8072C3.87048 13.7987 2.87506 12.0781 2.87506 10.125C2.87506 7.0184 5.39346 4.5 8.50006 4.5C11.6067 4.5 14.1251 7.0184 14.1251 10.125Z" fill="#344054"/>
</svg>
