<svg width="24" height="23" fill="none" xmlns="http://www.w3.org/2000/svg"><path d="M21.962 16.981h-.497a.499.499 0 110-.998h.497a1 1 0 00.999-.998V2.007a1 1 0 00-.999-.999H1.997a1 1 0 00-.999.999v12.978a1 1 0 00.999.998h6.488a.499.499 0 110 .998H1.997A1.999 1.999 0 010 14.985V2.007C0 .906.895.01 1.997.01h19.965a2 2 0 011.997 1.997v12.978a2 2 0 01-1.997 1.996z" fill="#1D2939"/><path d="M18.47 22.97h-5.99a.499.499 0 01-.499-.498v-9.983a.5.5 0 01.5-.5h5.99a.5.5 0 01.498.5v9.983a.498.498 0 01-.499.499zm-5.49-.997h4.99v-8.985h-4.99v8.985zm3.796-11.107a.496.496 0 01-.26-.074 1.99 1.99 0 00-2.005-.038.5.5 0 01-.486-.872 2.989 2.989 0 013.011.059.5.5 0 01-.26.925zM17.82 9.16a.494.494 0 01-.26-.073A4 4 0 0013.537 9a.5.5 0 01-.485-.873 5 5 0 015.03.107.5.5 0 01-.261.926zm1.041-1.7a.5.5 0 01-.261-.074 5.98 5.98 0 00-6.033-.129.5.5 0 01-.486-.872 6.984 6.984 0 017.041.15.5.5 0 01-.261.924z" fill="#1D2939"/></svg>