<svg width="22" height="22" fill="none" xmlns="http://www.w3.org/2000/svg"><path d="M10.981 21.962C4.926 21.962 0 17.037 0 10.982 0 4.925 4.926 0 10.981 0c6.056 0 10.981 4.926 10.981 10.981 0 6.056-4.925 10.981-10.98 10.981zm0-21.047C5.431.915.915 5.431.915 10.981c0 5.55 4.516 10.066 10.066 10.066 5.55 0 10.066-4.515 10.066-10.066 0-5.55-4.515-10.066-10.066-10.066z" fill="#1D2939"/><path d="M10.981 17.486c-3.26 0-5.487-2.05-5.487-5.284a.457.457 0 11.915 0c0 2.805 2.031 4.368 4.572 4.368s4.573-1.558 4.573-4.368a.457.457 0 11.915 0c0 3.373-2.228 5.284-5.488 5.284zm4.726-7.877a.457.457 0 01-.458-.458c0-.757-.615-1.373-1.372-1.373-.757 0-1.373.616-1.373 1.373a.457.457 0 11-.915 0 2.29 2.29 0 012.288-2.288 2.29 2.29 0 012.288 2.288.457.457 0 01-.458.458zm-5.791 0a.457.457 0 01-.458-.458c0-.757-.616-1.373-1.373-1.373-.756 0-1.372.616-1.372 1.373a.457.457 0 11-.915 0 2.29 2.29 0 012.287-2.288 2.29 2.29 0 012.288 2.288.457.457 0 01-.457.458z" fill="#1D2939"/></svg>