<svg width="16" height="16" fill="none" xmlns="http://www.w3.org/2000/svg">
  <mask id="a" fill="#fff">
    <path fill-rule="evenodd" clip-rule="evenodd" d="M8.27 1.055a1.25 1.25 0 0 0-.605-.032l.144.736-.146-.735L2.619 2.03a.75.75 0 0 0-.589.589L1.024 7.663v.002a1.25 1.25 0 0 0 .342 1.125h.001l6.522 6.522a1.243 1.243 0 0 0 1.772 0l5.651-5.651a1.243 1.243 0 0 0 0-1.772L8.79 1.367a1.25 1.25 0 0 0-.52-.312Zm5.807 7.72L7.823 2.52l-4.42.882-.882 4.42 6.254 6.254 5.302-5.302ZM6.14 5.39a.75.75 0 1 1-1.5 0 .75.75 0 0 1 1.5 0Z"/>
  </mask>
  <path fill-rule="evenodd" clip-rule="evenodd" d="M8.27 1.055a1.25 1.25 0 0 0-.605-.032l.144.736-.146-.735L2.619 2.03a.75.75 0 0 0-.589.589L1.024 7.663v.002a1.25 1.25 0 0 0 .342 1.125h.001l6.522 6.522a1.243 1.243 0 0 0 1.772 0l5.651-5.651a1.243 1.243 0 0 0 0-1.772L8.79 1.367a1.25 1.25 0 0 0-.52-.312Zm5.807 7.72L7.823 2.52l-4.42.882-.882 4.42 6.254 6.254 5.302-5.302ZM6.14 5.39a.75.75 0 1 1-1.5 0 .75.75 0 0 1 1.5 0Z" fill="#344054"/>
  <path d="M7.665 1.023 7.377-.449 5.905-.16l.288 1.473 1.472-.289Zm.606.032L8.709-.38l-.438 1.435Zm-.462.704-1.47.294L9.28 1.47 7.81 1.76Zm-.146-.735L9.133.73 8.84-.74l-1.47.293.293 1.47ZM2.619 2.03l.293 1.471-.293-1.47Zm-.589.589 1.471.293-1.47-.293ZM1.024 7.663l-.298 1.47L2.2 9.43l.295-1.475-1.471-.293Zm0 0 .298-1.47-1.48-.3-.29 1.481 1.472.289Zm0 .002 1.471.288-1.472-.288Zm.03.606-1.434.438 1.435-.438Zm.312.519L.306 9.85v.001l1.06-1.061Zm.001 0 1.06-1.06v-.001L1.367 8.79Zm6.522 6.522 1.068-1.053-.007-.007-1.06 1.06Zm.403.274-.582 1.382.582-1.383Zm.966 0-.582-1.383.582 1.383Zm.403-.274-1.06-1.06-.009.007 1.069 1.053Zm5.651-5.651L14.26 8.592l-.007.008 1.06 1.06Zm.274-.403-1.383-.582 1.383.582Zm0-.966 1.382-.582-1.383.582Zm-.274-.403-1.06 1.06.007.008 1.053-1.068ZM8.79 1.367 7.73 2.427l1.061-1.06Zm0 0L9.85.306 8.79 1.366ZM7.823 2.52l1.06-1.06-.566-.568-.787.157.293 1.471Zm6.254 6.254 1.06 1.06 1.061-1.06-1.06-1.06-1.061 1.06ZM3.403 3.403l-.293-1.47-.982.195-.196.982 1.471.293Zm-.882 4.42-1.47-.293-.158.787.568.567 1.06-1.06Zm6.254 6.254-1.06 1.06 1.06 1.061 1.06-1.06-1.06-1.061ZM7.953 2.495a.25.25 0 0 1-.12-.006L8.708-.38a2.75 2.75 0 0 0-1.332-.069l.576 2.944Zm1.328-1.024L9.137.735l-2.944.577.144.736 2.944-.577Zm-3.09-.154.147.736 2.942-.587L9.134.73l-2.942.587ZM2.913 3.501l5.044-1.006L7.37-.447 2.325.559l.587 2.942Zm.59-.589a.75.75 0 0 1-.59.59L2.325.558A2.25 2.25 0 0 0 .56 2.325l2.942.587ZM2.494 7.956 3.5 2.912.56 2.325-.447 7.37l2.942.587ZM.726 9.133l.596-2.94-.596 2.94Zm1.77-1.18v-.002l-2.944-.577v.003l2.943.576Zm-.007-.12a.25.25 0 0 1 .006.12l-2.944-.576c-.086.443-.063.9.069 1.332l2.87-.877Zm-.062-.104a.25.25 0 0 1 .062.103L-.38 8.71c.132.431.367.823.686 1.142l2.12-2.122Zm0 0L.306 9.85l2.12-2.122Zm6.523 6.523L2.428 7.73.306 9.85l6.522 6.523 2.122-2.121Zm-.076-.049c.031.013.06.032.083.056l-2.136 2.106c.254.258.556.463.89.603l1.163-2.765Zm-.1-.02c.035 0 .069.007.1.02L7.71 16.968c.337.142.7.215 1.065.215v-3Zm-.098.02a.257.257 0 0 1 .099-.02v3c.366 0 .727-.073 1.064-.215l-1.163-2.765Zm-.084.056a.259.259 0 0 1 .084-.056l1.163 2.765c.334-.14.636-.345.89-.603L8.592 14.26Zm5.66-5.659L8.6 14.252l2.121 2.121 5.652-5.652-2.121-2.12Zm-.049.076a.259.259 0 0 1 .056-.084l2.106 2.137c.258-.254.463-.556.603-.89l-2.765-1.163Zm-.02.099c0-.034.007-.068.02-.1l2.765 1.164c.142-.337.215-.698.215-1.064h-3Zm.02.1a.257.257 0 0 1-.02-.1h3c0-.366-.073-.728-.215-1.065l-2.765 1.164Zm.056.082a.259.259 0 0 1-.056-.083l2.765-1.164a2.743 2.743 0 0 0-.603-.89L14.26 8.958Zm-6.53-6.53 6.523 6.523 2.121-2.122L9.851.306 7.73 2.428Zm0 0L9.852.307l-2.124 2.12Zm.103.062a.25.25 0 0 1-.103-.062L9.85.307A2.75 2.75 0 0 0 8.709-.38l-.877 2.87Zm-1.07 1.093 6.254 6.254 2.121-2.122-6.253-6.253-2.121 2.121ZM3.698 4.874l4.42-.882L7.53 1.05l-4.42.882.587 2.942Zm.295 3.243.882-4.42-2.942-.587-.882 4.42 2.942.587Zm5.844 4.9L3.582 6.762l-2.121 2.12 6.253 6.254 2.122-2.12Zm3.18-5.303-5.302 5.302 2.122 2.121 5.301-5.301-2.12-2.122Zm-7.625-.073a2.25 2.25 0 0 0 2.25-2.25h-3a.75.75 0 0 1 .75-.75v3ZM3.14 5.39a2.25 2.25 0 0 0 2.25 2.25v-3a.75.75 0 0 1 .75.75h-3Zm2.25-2.25a2.25 2.25 0 0 0-2.25 2.25h3a.75.75 0 0 1-.75.75v-3Zm2.25 2.25a2.25 2.25 0 0 0-2.25-2.25v3a.75.75 0 0 1-.75-.75h3Z" fill="#344054" mask="url(#a)"/>
</svg>
