<svg width="20" height="20" fill="none" xmlns="http://www.w3.org/2000/svg"><path d="M6.29 18.126c7.547 0 11.675-6.253 11.675-11.676 0-.177 0-.354-.012-.53A8.348 8.348 0 0020 3.796a8.179 8.179 0 01-2.357.646 4.117 4.117 0 001.804-2.27 8.221 8.221 0 01-2.605.996A4.107 4.107 0 009.849 6.91a11.65 11.65 0 01-8.457-4.287 4.106 4.106 0 001.27 5.478A4.067 4.067 0 01.8 7.587v.052a4.105 4.105 0 003.292 4.023 4.098 4.098 0 01-1.853.07 4.109 4.109 0 003.834 2.85A8.234 8.234 0 010 16.282a11.619 11.619 0 006.29 1.84" fill="#98A2B3"/></svg>