<svg width="24" height="24" viewBox="0 0 24 24" fill="none" xmlns="http://www.w3.org/2000/svg">
<path d="M22.8814 17.601C21.9829 15.984 19.6684 14.041 18.7129 13.1955C18.4514 12.964 18.4234 12.5635 18.6614 12.3075C20.4849 10.348 21.9434 8.09651 22.4454 6.73601C22.6669 6.13501 22.2084 5.50001 21.5624 5.50001H19.6859C19.0674 5.50001 18.7054 5.72201 18.5329 6.07551C17.0174 9.18101 15.7174 10.525 14.8074 11.3105C14.2979 11.7505 13.5034 11.386 13.5034 10.7165C13.5034 9.42651 13.5034 7.75901 13.5034 6.57651C13.5034 6.00301 13.0344 5.53901 12.4559 5.53901L9.02794 5.50001C8.59644 5.50001 8.34994 5.98851 8.60894 6.33101L9.17494 7.14351C9.38794 7.42501 9.50294 7.76751 9.50294 8.11901L9.49994 11.778C9.49994 12.4145 8.72844 12.7255 8.27044 12.2795C6.72094 10.7705 5.37644 7.68901 4.89244 6.21551C4.75244 5.78901 4.35294 5.50101 3.89994 5.50001L2.05144 5.49551C1.35794 5.49551 0.850944 6.15301 1.03944 6.81501C2.72844 12.7435 6.19394 18.3835 12.3699 18.995C12.9784 19.055 13.5034 18.565 13.5034 17.9585V16.0355C13.5034 15.484 13.9359 15.01 14.4919 14.996C14.5114 14.9955 14.5309 14.9955 14.5504 14.9955C16.1839 14.9955 18.0134 17.373 18.6534 18.485C18.8374 18.805 19.1814 19 19.5534 19H22.0399C22.7654 19 23.2309 18.2305 22.8814 17.601Z" fill="#2787F5"/>
</svg>
