<svg width="20" height="20" fill="none" xmlns="http://www.w3.org/2000/svg"><path d="M19.068 14.668c-.749-1.348-2.678-2.967-3.474-3.672a.518.518 0 01-.043-.74c1.52-1.633 2.735-3.509 3.153-4.643.185-.5-.197-1.03-.735-1.03h-1.564c-.516 0-.817.185-.961.48-1.263 2.588-2.346 3.708-3.105 4.362a.658.658 0 01-1.086-.495V5.48a.868.868 0 00-.873-.864l-2.857-.033a.433.433 0 00-.349.693l.472.677c.177.235.273.52.273.813l-.002 3.049c0 .53-.643.79-1.025.418C5.6 8.975 4.48 6.408 4.077 5.18a.87.87 0 00-.827-.597L1.71 4.58a.869.869 0 00-.844 1.1c1.408 4.94 4.295 9.64 9.442 10.15a.867.867 0 00.945-.865v-1.602c0-.46.36-.855.823-.866h.05c1.36 0 2.885 1.98 3.418 2.907.154.267.44.43.75.43h2.072c.605 0 .993-.642.702-1.166z" fill="#98A2B3"/></svg>